<?xml version="1.0" encoding="UTF-8" standalone="no"?>
<!-- Created with Inkscape (http://www.inkscape.org/) -->

<svg
   xmlns:dc="http://purl.org/dc/elements/1.1/"
   xmlns:cc="http://creativecommons.org/ns#"
   xmlns:rdf="http://www.w3.org/1999/02/22-rdf-syntax-ns#"
   xmlns:svg="http://www.w3.org/2000/svg"
   xmlns="http://www.w3.org/2000/svg"
   xmlns:sodipodi="http://sodipodi.sourceforge.net/DTD/sodipodi-0.dtd"
   xmlns:inkscape="http://www.inkscape.org/namespaces/inkscape"
   id="svg3438"
   version="1.1"
   inkscape:version="0.91 r13725"
   width="1213.75"
   height="985"
   viewBox="0 0 1213.75 985"
   sodipodi:docname="Intui Logo Final.svg">
  <metadata
     id="metadata3444">
    <rdf:RDF>
      <cc:Work
         rdf:about="">
        <dc:format>image/svg+xml</dc:format>
        <dc:type
           rdf:resource="http://purl.org/dc/dcmitype/StillImage" />
        <dc:title></dc:title>
      </cc:Work>
    </rdf:RDF>
  </metadata>
  <defs
     id="defs3442" />
  <sodipodi:namedview
     pagecolor="#ffffff"
     bordercolor="#666666"
     borderopacity="1"
     objecttolerance="10"
     gridtolerance="10"
     guidetolerance="10"
     inkscape:pageopacity="0"
     inkscape:pageshadow="2"
     inkscape:window-width="1920"
     inkscape:window-height="997"
     id="namedview3440"
     showgrid="false"
     inkscape:zoom="0.9983453"
     inkscape:cx="716.34846"
     inkscape:cy="398.29868"
     inkscape:window-x="0"
     inkscape:window-y="0"
     inkscape:window-maximized="1"
     inkscape:current-layer="svg3438" />
  <path
     style="fill:#000000"
     d="m 222.37508,881.48989 c -46.54482,-13.4971 -42.43128,-59.76928 -43.04099,-91.32462 -22.39608,28.10943 -42.40167,34.12115 -76.31143,35.08398 -21.890767,-0.64621 -50.835546,-18.74569 -53.52425,-42.10636 -1.013248,-12.15689 5.433757,-13.00429 11.822974,-17.27551 9.447054,-5.93908 8.065496,29.94474 41.659046,31.56997 68.54483,-2.88828 81.48711,-78.19764 85.64251,-136.02208 3.10689,-25.07115 4.57529,-29.12082 12.25755,-33.805 9.13669,-5.57099 19.57578,-4.35772 24.48801,5.56492 3.34436,6.75556 2.88529,17.28468 -0.45458,51.36508 -3.45942,48.46915 -7.72362,102.09512 -2.23414,146.48521 2.91349,9.55173 6.3727,13.34929 11.96834,13.13893 11.14251,-0.41889 25.01103,-12.77223 40.17851,-35.78886 15.46852,-23.47348 28.71445,-44.11323 43.94932,-88.14449 21.3387,-61.67233 26.92985,-99.3412 31.09132,-130.43104 2.8418,-21.23079 32.50961,-22.78479 38.67437,-2.02576 2.33582,4.93199 0.16132,21.15383 1.35246,21.61859 17.49808,-40.53983 39.18541,-54.27663 78.42807,-58.39927 87.27358,-3.75672 24.72573,209.79078 56.398,154.6371 30.95718,-43.89704 36.00869,-53.35869 64.98909,-101.9767 7.00037,-11.19882 7.01092,-27.55152 7.0162,-40.2694 0.0141,-34.02883 0.93233,-132.88011 3.89828,-144.69741 0.45344,-1.80671 0.19721,-2.97568 -0.65227,-2.97568 -0.7695,0 -9.97512,5.5407 -20.45693,12.31265 -87.11974,63.16749 -324.62115,176.18513 -393.49277,158.3784 -26.88124,-7.0107 -33.25002,-24.3481 -37.30216,-50.46475 -8.38618,-62.82037 44.58548,-89.18074 90.1399,-70.39877 14.28079,6.23778 18.51175,16.41834 11.93245,28.71188 -3.91967,7.32397 -15.97857,9.68721 -26.06744,5.10856 -17.56143,-7.96996 -26.60141,-4.67302 -37.0028,7.80994 -10.23575,12.28416 -8.54755,32.94175 2.16019,42.71934 41.52842,35.27331 312.97268,-104.34489 414.18328,-182.66939 0.45306,-0.73305 1.68968,-9.38782 2.74806,-19.23284 6.06526,-33.73235 9.50196,-119.13071 45.93483,-131.77218 36.39402,-7.79623 40.72731,47.41097 42.06443,63.61542 0.64119,8.10879 0.86199,15.53498 0.49066,16.50264 -1.6924,4.41029 1.3542,4.06812 8.36626,-0.93964 90.67148,-64.75429 170.17146,-111.55851 228.27414,-136.92885 43.27455,-16.78443 135.43243,-54.36172 172.93383,-17.40922 25.2837,27.13599 15.9939,71.96239 -6.4654,92.1366 -19.0271,18.5592 -85.2135,29.94718 -93.6403,2.61532 0.096,-6.3864 2.6738,-10.65975 9.0435,-14.99486 5.0838,-3.45999 8.7541,-3.51645 20.3159,-0.3125 20.9159,4.63956 47.2591,-7.15558 49.1383,-28.24018 0.6959,-32.17588 -20.2808,-28.93076 -44.6334,-27.11614 -72.43179,8.67088 -186.50684,68.54699 -329.33323,171.80354 -15.47922,11.19073 -15.23996,10.85645 -16.23486,22.68205 -7.13727,84.83447 -24.60186,164.21544 -48.22791,219.20798 -3.54439,8.25 -6.95745,16.67154 -7.58459,18.71454 -1.47194,4.7951 0.71996,39.98972 3.24929,52.17251 20.07757,46.47494 56.31081,-7.06056 76.59822,-32.43834 23.93326,-33.70147 38.02383,-104.96464 44.02094,-157.82371 3.93725,-34.70323 4.71347,-38.79523 8.23496,-43.41214 8.90248,-11.67175 25.48659,-10.27585 32.18887,2.70936 2.52618,4.89432 2.52808,5.06444 0.33498,30 -5.0141,48.42787 -6.99485,71.03515 -11.6177,115.70278 -1.4727,14.14574 -4.87685,54.68265 16.19059,56.23883 12.26307,0.4424 20.43632,-7.3728 34.98471,-22.5674 18.80356,-18.74122 36.46205,-44.96751 40.41549,-81.76664 4.68101,-35.69138 7.0817,-77.69568 10.88209,-126.7505 1.58518,-20.46129 6.85782,-25.77755 13.75986,-29.49454 6.19931,-3.33855 16.02095,-2.16305 20.8881,2.49997 7.41066,7.09987 6.6902,10.33305 3.93361,51.49208 -3.084,46.04763 -4.99393,55.46621 -10.4035,112.8482 -1.62835,20.0962 -7.68225,42.271 1.5691,43.75 10.58164,0.4562 25.03884,-18.06654 37.49633,-32.5 28.45861,-32.97259 54.37675,-97.01501 60.42245,-149.3008 1.7912,-15.49115 3.1005,-24.79438 6.9592,-49.4492 3.2424,-20.71692 5.4038,-25.38735 13.8233,-29.86978 9.6161,-5.11947 20.8047,-1.73668 25.7743,7.79265 3.8838,7.44733 2.4558,27.65031 -4.5647,64.57713 -1.3724,7.21875 -3.3869,17.90625 -4.4766,23.75 -2.2402,12.01344 -4.9567,77.97153 -3.7743,91.641 0.7629,8.81945 3.1078,16.12907 5.6851,17.72193 1.9467,1.20312 7.9955,-4.68131 19.2613,-18.73793 10.9306,-13.63833 21.5303,-28.74815 26.9684,-38.44314 16.8041,-26.97841 40.3242,1.63943 32.7007,19.53853 -10.8402,23.9077 -46.8765,66.06345 -64.4657,75.41292 -16.2255,8.89636 -30.3543,4.62645 -41.504,-2.94044 -6.4368,-4.43321 -15.4412,-16.14922 -15.4412,-20.09126 0,-3.4837 -2.5381,-1.23731 -7.0174,6.21089 -6.7004,11.14143 -17.76424,24.42899 -33.60764,40.36236 -22.30816,22.43484 -37.28494,32.33688 -54.05483,35.73885 -7.19492,1.45959 -8.49846,1.35991 -16.6809,-1.27541 -5.54071,-1.78451 -10.64872,-4.46022 -13.59347,-7.12063 l -4.71741,-4.2619 -3.24009,4.89611 c -6.30384,9.52576 -22.33065,27.61063 -30.59219,34.52067 -19.88264,16.63005 -32.22827,21.23921 -52.33519,19.53903 -19.79347,-1.67369 -33.54507,-9.36617 -42.95326,-24.02755 -2.18255,-3.40122 -4.36389,-6.18403 -4.84741,-6.18403 -0.48352,0 -1.86441,2.23322 -3.06867,4.96273 -1.25546,2.84556 -3.42989,6.03132 -5.49381,9.90802 -21.90111,41.13734 -47.9841,58.45867 -63.0319,66.06823 -36.17403,19.50796 -75.10857,-8.78858 -78.40128,-37.66368 -0.70909,-9.35261 -3.18605,-8.2753 -3.18605,-8.2753 -2.17516,0.96983 -2.34659,1.75813 -5.95658,7.34273 -19.72226,36.39081 -70.38293,113.53163 -97.45092,112.16749 -23.39295,-0.10772 -24.54386,-28.67662 -23.83611,-43.27701 -0.82541,-32.83457 22.20881,-149.35811 -22.3303,-140.50141 -32.69442,6.00081 -58.10717,58.87264 -64.83551,89.44286 -8.14183,36.99245 -10.69591,60.82372 -13.91748,119.65233 -3.22462,20.64945 -7.70528,26.73121 -24.05955,26.85036 -10.93078,-0.0311 -14.99526,-7.50642 -15.53817,-26.08494 -0.26629,-9.11256 -1.62358,-19.56015 -2.21213,-19.19642 -0.58854,0.36374 -2.12412,3.04419 -3.4124,5.95658 -3.78135,8.54835 -17.42261,30.53801 -26.8929,43.35121 -22.7595,30.7934 -42.08695,43.83947 -64.58595,43.59569 -5.15625,-0.0559 -11.00141,-1.02107 -13.125,-1.02107 z M 651.82255,386.51925 c 0.80025,-6.90922 0.71659,-7.24375 -1.50023,-5.9993 -1.29125,0.72488 -3.8733,2.61138 -5.73789,4.19224 -3.33174,2.82479 -3.42229,3.29416 -5.25628,27.2493 -9.58588,107.87049 0.98172,72.39957 12.4944,-25.44224 z m 4.49688,-60.963 c 0.51272,-70.85894 -6.59821,-32.80625 -8.96478,8.12794 l -0.005,3.5977 4.0625,-3.12794 c 3.08141,-2.37255 4.26652,-4.44888 4.90735,-8.5977 z"
     id="path3448"
     inkscape:connector-curvature="0"
     sodipodi:nodetypes="cccccccssccssssccccccssccccssscccccssccccscccssssccssscccccssssccssssssssssccccsssssscsssssssccsccccsccscssssccscccccsccc" />
</svg>
